<?xml version="1.0" encoding="UTF-8" ?>
<svg xmlns="http://www.w3.org/2000/svg" version="1.1" viewBox="0 0 100 100">
   <defs>
      <title>Favicon</title>
   </defs>

   <circle fill="#CCC" cx="50" cy="50" r="50"/>

   <path fill="#333" d="m 21.687646,42.021328 -0.384,1.621335 h 3.285336 l -3.712003,14.592011 c -0.64,2.432002 -1.920001,9.17334 -4.693337,9.17334 -0.384,0 -0.64,-0.128 -0.64,-0.384 0,-0.512001 0.682667,-0.554667 0.682667,-1.365335 0,-0.64 -0.426667,-1.408001 -1.578668,-1.408001 -1.237334,0 -1.834668,1.066668 -1.834668,2.090668 0,1.280001 1.024001,2.304002 3.072002,2.304002 3.75467,0 6.058672,-4.053336 7.466673,-7.594672 0.64,-1.578668 0.981334,-3.200003 1.280001,-4.352003 l 3.370669,-13.05601 h 3.242669 l 0.512,-1.621335 h -3.413336 l 0.810668,-2.986669 c 0.896,-3.328002 2.560001,-5.632004 4.693336,-5.632004 0.512001,0 0.640001,0.128 0.640001,0.341334 0,0.341333 -0.384,0.981334 -0.384,1.578668 0,0.597333 0.298666,1.066667 1.493334,1.066667 0.853334,0 1.749335,-0.512 1.749335,-1.706668 0,-1.493334 -1.237335,-2.517335 -3.37067,-2.517335 -3.242669,0 -5.077337,1.834668 -6.400004,3.840003 -1.834668,2.730669 -1.621335,6.016004 -4.309337,6.016004 z" />
   <path fill="#333" d="m 38.996993,50.000001 q 0,-7.210672 2.688002,-13.013343 1.152001,-2.432002 2.730669,-4.480003 1.621335,-2.048002 2.688002,-2.944003 1.066668,-0.896 1.365334,-0.896 0.426667,0 0.426667,0.426667 0,0.213333 -0.554667,0.725334 -6.869338,6.997338 -6.869338,20.181348 0,13.226676 6.698672,19.968015 0.725333,0.725334 0.725333,0.938667 0,0.426667 -0.426667,0.426667 -0.298666,0 -1.322667,-0.853334 -1.024001,-0.853334 -2.602669,-2.816002 -1.578668,-1.962668 -2.730669,-4.352003 -2.816002,-5.802671 -2.816002,-13.31201 z" />
   <path fill="#333" d="m 64.369679,48.378666 -0.853334,-2.346668 c -0.512001,-1.408001 -1.322668,-3.157336 -3.200003,-4.181336 l -5.632004,1.408001 0.128,0.768 c 0.426667,-0.170667 1.066668,-0.256 1.621335,-0.256 2.346668,0 3.456002,1.749335 4.181336,3.797336 l 1.408001,3.925336 -2.773335,4.309337 c -1.365334,2.090668 -2.474669,2.517335 -2.986669,2.517335 -1.066667,0 -0.896001,-0.853334 -2.005335,-0.853334 -1.066667,0 -1.621334,0.896001 -1.621334,1.578668 0,0.938667 0.682667,2.005335 2.218668,2.005335 2.389335,0 3.626669,-1.834668 4.992004,-3.925336 l 2.688002,-4.181337 1.706668,4.821337 c 0.554667,1.536001 1.365334,3.285336 3.114669,3.285336 2.474668,0 4.39467,-4.096003 4.90667,-4.736004 l -0.597334,-0.426667 c -0.896001,1.834668 -1.920001,2.432002 -2.602669,2.432002 -1.920001,0 -2.901335,-5.760004 -4.181336,-8.405339 l 2.346668,-3.62667 c 0.597334,-0.938667 1.066668,-1.621334 2.346669,-1.621334 0.725334,0 0.938667,0.384 1.877335,0.384 1.109334,0 1.664001,-0.981334 1.664001,-1.792001 0,-0.896001 -0.725334,-1.408001 -2.090668,-1.408001 -2.133335,0 -3.62667,1.877334 -4.736004,3.584002 z" />
   <path fill="#333" d="m 77.288353,70.906683 q 0,-0.213333 0.554667,-0.725334 6.869338,-6.997338 6.869338,-20.181348 0,-13.226677 -6.613338,-19.925348 -0.810667,-0.768001 -0.810667,-0.981334 0,-0.426667 0.426667,-0.426667 0.298667,0 1.322667,0.853334 1.024001,0.853334 2.602669,2.816002 1.578668,1.962668 2.730669,4.352003 2.816002,5.802671 2.816002,13.31201 0,7.210672 -2.688002,13.013343 -1.152001,2.432002 -2.773336,4.480003 -1.578667,2.048002 -2.645335,2.944003 -1.066667,0.896 -1.365334,0.896 -0.426667,0 -0.426667,-0.426667 z" />
</svg>
